<svg width="1539" height="1031" viewBox="0 0 1539 1031" fill="none" xmlns="http://www.w3.org/2000/svg">
<path d="M1 5H1537V1029H1V5Z" fill="#F6E7CD"/>
<path d="M960.5 824.5H736.5V841.5H960.5V824.5Z" fill="#2B2C29"/>
<path d="M1058.5 288V189H1075.5V288C1075.5 311.472 1056.47 330.5 1033 330.5H936.5V313.5H1033C1047.08 313.5 1058.5 302.083 1058.5 288Z" fill="#2B2C29"/>
<path d="M877 114.5V131.5H679V114.5H877Z" fill="#2B2C29"/>
<path d="M896.5 378V501H879.5V378H896.5Z" fill="#2B2C29"/>
<path d="M1200.5 906V1029H1183.5V906H1200.5Z" fill="#2B2C29"/>
<path d="M1450.5 631V815H1433.5V631H1450.5Z" fill="#2B2C29"/>
<path d="M973 842.5H746V825.5H973V842.5ZM1538.5 825.5H1370V808.5H1538.5V825.5Z" fill="#2B2C29"/>
<path d="M1447.5 959V1031H1430.5V959H1447.5Z" fill="#2B2C29"/>
<path d="M1441 133.5H1329.5V116.5H1441V133.5Z" fill="#2B2C29"/>
<path d="M986.982 493L987.017 510L777.79 510.431C763.773 510.459 752.408 521.796 752.343 535.813L752 610.302L752 656.876L735 656.877L735 610.264L734.999 610.224L735.343 535.735C735.451 512.374 754.394 493.479 777.755 493.431L986.982 493Z" fill="#2B2C29"/>
<path d="M1343.04 1.50009L1343.04 465.5C1343.04 488.972 1324.01 508 1300.54 508L1231.7 508C1217.66 508 1206.27 519.345 1206.2 533.382L1205.86 607.802L1205.86 654.376L1188.86 654.377L1188.86 607.724L1189.2 533.304C1189.31 509.909 1208.31 491 1231.7 491L1300.54 491C1314.62 491 1326.04 479.583 1326.04 465.5L1326.04 1.49991L1343.04 1.50009Z" fill="#2B2C29"/>
<path d="M1199.43 655.776L1199.43 672.776L1099.09 672.776C1085.06 672.776 1073.66 684.121 1073.59 698.158L1073.25 772.579L1073.25 1028.5L1056.25 1028.5L1056.25 772.54L1056.25 772.519L1056.25 772.5L1056.59 698.08C1056.7 674.685 1075.7 655.776 1099.09 655.776L1199.43 655.776Z" fill="#2B2C29"/>
<path d="M1539 248.776L1539 265.776L1481.09 265.776C1467.06 265.776 1455.66 277.121 1455.59 291.158L1455.25 365.579L1455.25 389L1438.25 389L1438.25 365.54L1438.25 365.519L1438.25 365.5L1438.59 291.08C1438.7 267.685 1457.7 248.776 1481.09 248.776L1539 248.776Z" fill="#2B2C29"/>
<path d="M582.5 920.87V647H744V664H599.5V920.87C599.5 934.953 610.917 946.37 625 946.37H851V963.37H625C601.528 963.37 582.5 944.342 582.5 920.87Z" fill="#2B2C29"/>
<path d="M367.5 856C367.5 849.096 361.904 843.5 355 843.5H208C203.306 843.5 199.5 839.694 199.5 835V597C199.5 592.306 203.306 588.5 208 588.5H287C293.924 588.5 299.5 582.922 299.5 576.039V145.906C299.5 139.052 293.953 133.5 287 133.5H0V116.5H197.5V0.5H214.5V116.5H287C303.243 116.5 316.5 129.565 316.5 145.906V576.039C316.5 592.352 303.272 605.5 287 605.5H216.5V826.5H355C371.292 826.5 384.5 839.708 384.5 856V1030H367.5V856ZM95.5 922.5V939.5H1V922.5H95.5ZM421 523.5C421 507.208 434.208 494 450.5 494H567C573.895 494 579.5 488.396 579.5 481.483V352.017C579.5 345.106 573.893 339.5 566.997 339.5H543.003C526.712 339.5 513.5 326.294 513.5 310V0.5H530.5V310C530.5 316.902 536.098 322.5 543.003 322.5H566.997C583.297 322.5 596.5 335.732 596.5 352.017V481.483C596.5 497.767 583.301 511 567 511H450.5C443.596 511 438 516.596 438 523.5V657H421V523.5ZM96.5 292.5V479H79.5V292.5H96.5Z" fill="#2B2C29"/>
<path d="M449 116.5C449 138.315 431.315 156 409.5 156C387.685 156 370 138.315 370 116.5C370 94.6848 387.685 77 409.5 77C431.315 77 449 94.6848 449 116.5Z" fill="#497568"/>
<path d="M297 952C297 971.33 281.33 987 262 987C242.67 987 227 971.33 227 952C227 932.67 242.67 917 262 917C281.33 917 297 932.67 297 952Z" fill="#497568"/>
<path d="M1266 320C1266 348.167 1243.17 371 1215 371C1186.83 371 1164 348.167 1164 320C1164 291.833 1186.83 269 1215 269C1243.17 269 1266 291.833 1266 320Z" fill="#497568"/>
<path d="M1133 125C1133 161.451 1103.45 191 1067 191C1030.55 191 1001 161.451 1001 125C1001 88.5492 1030.55 59 1067 59C1103.45 59 1133 88.5492 1133 125Z" fill="#497568"/>
<path d="M987 648C987 681.137 960.137 708 927 708C893.863 708 867 681.137 867 648C867 614.863 893.863 588 927 588C960.137 588 987 614.863 987 648Z" fill="#497568"/>
<path d="M126 292.5C126 313.211 109.211 330 88.5 330C67.7893 330 51 313.211 51 292.5C51 271.789 67.7893 255 88.5 255C109.211 255 126 271.789 126 292.5Z" fill="#497568"/>
<path d="M126 292.5C126 313.211 109.211 330 88.5 330C67.7893 330 51 313.211 51 292.5C51 271.789 67.7893 255 88.5 255C109.211 255 126 271.789 126 292.5Z" fill="#2B2C29"/>
<path d="M647 500.5C647 532.809 620.809 559 588.5 559C556.191 559 530 532.809 530 500.5C530 468.191 556.191 442 588.5 442C620.809 442 647 468.191 647 500.5Z" fill="#497568"/>
<path d="M647 500.5C647 532.809 620.809 559 588.5 559C556.191 559 530 532.809 530 500.5C530 468.191 556.191 442 588.5 442C620.809 442 647 468.191 647 500.5Z" fill="#2B2C29"/>
<path d="M1002 833.5C1002 854.211 985.211 871 964.5 871C943.789 871 927 854.211 927 833.5C927 812.789 943.789 796 964.5 796C985.211 796 1002 812.789 1002 833.5Z" fill="#497568"/>
<path d="M1002 833.5C1002 854.211 985.211 871 964.5 871C943.789 871 927 854.211 927 833.5C927 812.789 943.789 796 964.5 796C985.211 796 1002 812.789 1002 833.5Z" fill="#2B2C29"/>
<path d="M151 931.5C151 962.704 125.704 988 94.5 988C63.2959 988 38 962.704 38 931.5C38 900.296 63.2959 875 94.5 875C125.704 875 151 900.296 151 931.5Z" fill="#497568"/>
<path d="M151 931.5C151 962.704 125.704 988 94.5 988C63.2959 988 38 962.704 38 931.5C38 900.296 63.2959 875 94.5 875C125.704 875 151 900.296 151 931.5Z" fill="#2B2C29"/>
<path d="M1508 124.5C1508 154.6 1483.6 179 1453.5 179C1423.4 179 1399 154.6 1399 124.5C1399 94.4005 1423.4 70 1453.5 70C1483.6 70 1508 94.4005 1508 124.5Z" fill="#497568"/>
<path d="M1508 124.5C1508 154.6 1483.6 179 1453.5 179C1423.4 179 1399 154.6 1399 124.5C1399 94.4005 1423.4 70 1453.5 70C1483.6 70 1508 94.4005 1508 124.5Z" fill="#2B2C29"/>
<path d="M540 936.5C540 959.42 521.42 978 498.5 978C475.58 978 457 959.42 457 936.5C457 913.58 475.58 895 498.5 895C521.42 895 540 913.58 540 936.5Z" fill="#497568"/>
<path d="M141.5 727C141.5 753.51 120.01 775 93.5 775C66.9903 775 45.5 753.51 45.5 727C45.5 700.49 66.9903 679 93.5 679C120.01 679 141.5 700.49 141.5 727Z" fill="#497568"/>
<path d="M495 726C495 707.435 488.099 689.63 475.815 676.503C463.532 663.375 446.872 656 429.5 656C412.128 656 395.468 663.375 383.185 676.503C370.901 689.63 364 707.435 364 726H495Z" fill="#2B2C29"/>
<path d="M693.5 395C714.85 395 735.325 387.572 750.422 374.351C765.519 361.13 774 343.198 774 324.5C774 305.802 765.519 287.87 750.422 274.649C735.325 261.428 714.85 254 693.5 254V395Z" fill="#1E1E1E"/>
<path d="M1225.11 63C1233.17 63 1241.28 64.1308 1249.06 66.4368C1256.81 68.7359 1264.41 72.262 1271.27 77.1738C1278.11 82.0742 1284.48 88.5572 1289.23 96.7648C1294.05 105.093 1297 114.911 1297 125.5C1297 136.089 1294.05 145.907 1289.23 154.235C1284.48 162.443 1278.11 168.926 1271.27 173.826C1264.41 178.738 1256.81 182.264 1249.06 184.563C1241.28 186.869 1233.17 188 1225.11 188H1195V63H1225.11Z" fill="#497568"/>
<path d="M412 352.5C412 408.557 366.333 454 310 454C253.667 454 208 408.557 208 352.5C208 296.443 253.667 251 310 251C366.333 251 412 296.443 412 352.5Z" fill="#497568"/>
<path d="M145 532.5C145 562.6 120.6 587 90.5 587C60.4005 587 36 562.6 36 532.5C36 502.4 60.4005 478 90.5 478C120.6 478 145 502.4 145 532.5Z" fill="#497568"/>
<path d="M429 834C429 863.271 405.271 887 376 887C346.729 887 323 863.271 323 834C323 804.729 346.729 781 376 781C405.271 781 429 804.729 429 834Z" fill="#497568"/>
<path d="M141 124.5C141 153.495 117.495 177 88.5 177C59.5051 177 36 153.495 36 124.5C36 95.5051 59.5051 72 88.5 72C117.495 72 141 95.5051 141 124.5Z" fill="#497568"/>
<path d="M939 125L840.75 185.622V64.3782L939 125Z" fill="#497568"/>
<path d="M728 121.5C728 160.988 695.541 193 655.5 193C615.459 193 583 160.988 583 121.5C583 82.0116 615.459 50 655.5 50C695.541 50 728 82.0116 728 121.5Z" fill="#497568"/>
<path d="M914 955C914 985.376 889.376 1010 859 1010C828.624 1010 804 985.376 804 955C804 924.624 828.624 900 859 900C889.376 900 914 924.624 914 955Z" fill="#497568"/>
<path d="M790 655.5C790 681.181 769.181 702 743.5 702C717.819 702 697 681.181 697 655.5C697 629.819 717.819 609 743.5 609C769.181 609 790 629.819 790 655.5Z" fill="#497568"/>
<path d="M1269 665C1269 703.66 1237.66 735 1199 735C1160.34 735 1129 703.66 1129 665C1129 626.34 1160.34 595 1199 595C1237.66 595 1269 626.34 1269 665Z" fill="#497568"/>
<path d="M1122 510C1122 489.578 1114.73 469.993 1101.79 455.553C1088.85 441.112 1071.3 433 1053 433C1034.7 433 1017.15 441.112 1004.21 455.553C991.27 469.993 984 489.578 984 510H1122Z" fill="#2B2C29"/>
<path d="M945 322.5C945 354.256 919.256 380 887.5 380C855.744 380 830 354.256 830 322.5C830 290.744 855.744 265 887.5 265C919.256 265 945 290.744 945 322.5Z" fill="#497568"/>
<path d="M1192 817L1252.62 915.25H1131.38L1192 817Z" fill="#497568"/>
<path d="M1496 387C1496 412.405 1475.41 433 1450 433C1424.59 433 1404 412.405 1404 387C1404 361.595 1424.59 341 1450 341C1475.41 341 1496 361.595 1496 387Z" fill="#497568"/>
<path d="M1490.5 942C1490.5 970.719 1467.22 994 1438.5 994C1409.78 994 1386.5 970.719 1386.5 942C1386.5 913.281 1409.78 890 1438.5 890C1467.22 890 1490.5 913.281 1490.5 942Z" fill="#497568"/>
<path d="M1384 818C1384 838.435 1367.21 855 1346.5 855C1325.79 855 1309 838.435 1309 818C1309 797.565 1325.79 781 1346.5 781C1367.21 781 1384 797.565 1384 818Z" fill="#497568"/>
<path d="M678 902C698.952 902 719.046 894.836 733.861 882.083C748.677 869.331 757 852.035 757 834C757 815.965 748.677 798.669 733.861 785.917C719.046 773.164 698.952 766 678 766V902Z" fill="#497568"/>
<path d="M1504 584.5C1504 618.466 1476.24 646 1442 646C1407.76 646 1380 618.466 1380 584.5C1380 550.534 1407.76 523 1442 523C1476.24 523 1504 550.534 1504 584.5Z" fill="#497568"/>
</svg>
