<?xml version="1.0" encoding="UTF-8"?>
<svg id="morph" xmlns="http://www.w3.org/2000/svg" viewBox="0 0 800 200" width="800" height="200">
  <defs>
    <linearGradient id="grad" x1="0" y1="0" x2="1" y2="0">
      <stop offset="0%"  stop-color="#22d3ee"/>
      <stop offset="100%" stop-color="#a78bfa"/>
    </linearGradient>
  </defs>

  <g fill="none" stroke="url(#grad)" stroke-width="6" stroke-linecap="round" stroke-linejoin="round" opacity="1">
    <!-- five states stacked; JS animates their opacities -->
    <path id="p1" d="M0,100 C80,60 160,140 240,100 C320,60 400,140 480,100 C560,60 640,140 720,100 C760,80 780,90 800,100"/>
    <path id="p2" d="M0,100 h60 v-50 h120 v100 h120 v-100 h120 v100 h120 v-50 h140"/>
    <path id="p3" d="M0,150 L100,50 L200,150 L300,50 L400,150 L500,50 L600,150 L700,50 L800,150"/>
    <path id="p4" d="M40,120 C120,40 200,180 280,110 C360,40 440,160 520,100 C600,40 680,160 760,80"/>
    <path id="p5" d="M0,100 C60,60 120,140 180,100 C240,60 300,140 360,100 C420,60 480,140 540,100 C600,60 660,140 720,100 C740,90 760,110 800,100"/>
  </g>
</svg>
